<mxfile host="app.diagrams.net" agent="Mozilla/5.0 (Windows NT 10.0; Win64; x64) AppleWebKit/537.36 (KHTML, like Gecko) Chrome/132.0.0.0 YaBrowser/25.2.0.0 Safari/537.36" version="26.0.16">
  <diagram name="Страница — 1" id="DdyoLKUv60fv7VQdcR84">
    <mxGraphModel dx="1434" dy="791" grid="1" gridSize="10" guides="1" tooltips="1" connect="1" arrows="1" fold="1" page="1" pageScale="1" pageWidth="827" pageHeight="1169" math="0" shadow="0">
      <root>
        <mxCell id="0" />
        <mxCell id="1" parent="0" />
        <mxCell id="bnACumZAh6A-GPEMyJIv-12" value="" style="edgeStyle=orthogonalEdgeStyle;rounded=0;orthogonalLoop=1;jettySize=auto;html=1;fontFamily=Times New Roman;fontSize=14;" edge="1" parent="1" source="bnACumZAh6A-GPEMyJIv-1" target="bnACumZAh6A-GPEMyJIv-2">
          <mxGeometry relative="1" as="geometry" />
        </mxCell>
        <mxCell id="bnACumZAh6A-GPEMyJIv-1" value="Начало" style="ellipse;whiteSpace=wrap;html=1;fontFamily=Times New Roman;fontSize=14;" vertex="1" parent="1">
          <mxGeometry x="280" y="40" width="320" height="40" as="geometry" />
        </mxCell>
        <mxCell id="bnACumZAh6A-GPEMyJIv-11" value="" style="edgeStyle=orthogonalEdgeStyle;rounded=0;orthogonalLoop=1;jettySize=auto;html=1;fontFamily=Times New Roman;fontSize=14;" edge="1" parent="1" source="bnACumZAh6A-GPEMyJIv-2" target="bnACumZAh6A-GPEMyJIv-4">
          <mxGeometry relative="1" as="geometry" />
        </mxCell>
        <mxCell id="bnACumZAh6A-GPEMyJIv-2" value="&lt;div&gt;&amp;nbsp;// Функция для вычисления&amp;nbsp;&lt;/div&gt;&lt;div&gt;кубического корня вручную&lt;/div&gt;&lt;div&gt;&amp;nbsp;static double CubeRoot(double value)&lt;/div&gt;" style="shape=parallelogram;perimeter=parallelogramPerimeter;whiteSpace=wrap;html=1;fixedSize=1;fontFamily=Times New Roman;fontSize=14;" vertex="1" parent="1">
          <mxGeometry x="280" y="120" width="320" height="80" as="geometry" />
        </mxCell>
        <mxCell id="bnACumZAh6A-GPEMyJIv-10" value="" style="edgeStyle=orthogonalEdgeStyle;rounded=0;orthogonalLoop=1;jettySize=auto;html=1;fontFamily=Times New Roman;fontSize=14;" edge="1" parent="1" source="bnACumZAh6A-GPEMyJIv-4" target="bnACumZAh6A-GPEMyJIv-5">
          <mxGeometry relative="1" as="geometry" />
        </mxCell>
        <mxCell id="bnACumZAh6A-GPEMyJIv-4" value="value &amp;gt;= 0?" style="rhombus;whiteSpace=wrap;html=1;fontFamily=Times New Roman;fontSize=14;" vertex="1" parent="1">
          <mxGeometry x="280" y="240" width="320" height="40" as="geometry" />
        </mxCell>
        <mxCell id="bnACumZAh6A-GPEMyJIv-16" value="" style="edgeStyle=orthogonalEdgeStyle;rounded=0;orthogonalLoop=1;jettySize=auto;html=1;fontFamily=Times New Roman;fontSize=14;" edge="1" parent="1" source="bnACumZAh6A-GPEMyJIv-5" target="bnACumZAh6A-GPEMyJIv-15">
          <mxGeometry relative="1" as="geometry" />
        </mxCell>
        <mxCell id="bnACumZAh6A-GPEMyJIv-5" value="&lt;p class=&quot;MsoNormal&quot;&gt;&lt;span style=&quot;background: rgb(255, 255, 255);&quot;&gt;return&lt;/span&gt;&lt;span style=&quot;background: rgb(255, 255, 255);&quot;&gt;&amp;nbsp;&lt;/span&gt;&lt;span style=&quot;background: rgb(255, 255, 255);&quot;&gt;Math&lt;/span&gt;&lt;span style=&quot;background: rgb(255, 255, 255);&quot;&gt;.Pow(value, 1.0 / 3.0);&lt;/span&gt;&lt;/p&gt;" style="rounded=0;whiteSpace=wrap;html=1;fontFamily=Times New Roman;fontSize=14;" vertex="1" parent="1">
          <mxGeometry x="280" y="320" width="320" height="60" as="geometry" />
        </mxCell>
        <mxCell id="bnACumZAh6A-GPEMyJIv-6" value="&lt;p class=&quot;MsoNormal&quot;&gt;&lt;span style=&quot;background: rgb(255, 255, 255);&quot;&gt;return&lt;/span&gt;&lt;span style=&quot;background: rgb(255, 255, 255);&quot;&gt;&amp;nbsp;-&lt;/span&gt;&lt;span style=&quot;background: rgb(255, 255, 255);&quot;&gt;Math&lt;/span&gt;&lt;span style=&quot;background: rgb(255, 255, 255);&quot;&gt;.Pow(&lt;/span&gt;&lt;span style=&quot;background: rgb(255, 255, 255);&quot;&gt;Math&lt;/span&gt;&lt;span style=&quot;background: rgb(255, 255, 255);&quot;&gt;.Abs(value), 1.0 / 3.0);&lt;/span&gt;&lt;/p&gt;" style="rounded=0;whiteSpace=wrap;html=1;fontFamily=Times New Roman;fontSize=14;" vertex="1" parent="1">
          <mxGeometry x="640" y="320" width="320" height="60" as="geometry" />
        </mxCell>
        <mxCell id="bnACumZAh6A-GPEMyJIv-13" value="нет" style="text;html=1;align=center;verticalAlign=middle;whiteSpace=wrap;rounded=0;fontFamily=Times New Roman;fontSize=14;" vertex="1" parent="1">
          <mxGeometry x="540" y="230" width="60" height="30" as="geometry" />
        </mxCell>
        <mxCell id="bnACumZAh6A-GPEMyJIv-14" value="да" style="text;html=1;align=center;verticalAlign=middle;whiteSpace=wrap;rounded=0;fontFamily=Times New Roman;fontSize=14;" vertex="1" parent="1">
          <mxGeometry x="380" y="280" width="60" height="30" as="geometry" />
        </mxCell>
        <mxCell id="bnACumZAh6A-GPEMyJIv-25" value="" style="edgeStyle=orthogonalEdgeStyle;rounded=0;orthogonalLoop=1;jettySize=auto;html=1;" edge="1" parent="1" source="bnACumZAh6A-GPEMyJIv-15" target="bnACumZAh6A-GPEMyJIv-24">
          <mxGeometry relative="1" as="geometry" />
        </mxCell>
        <mxCell id="bnACumZAh6A-GPEMyJIv-15" value="&lt;p class=&quot;MsoNormal&quot;&gt;&lt;span style=&quot;background: rgb(255, 255, 255);&quot;&gt;Console&lt;/span&gt;&lt;span style=&quot;background: rgb(255, 255, 255);&quot;&gt;.WriteLine(&lt;/span&gt;&lt;span style=&quot;background: rgb(255, 255, 255);&quot;&gt;&quot;Введите значения для a,B,XO,Xk,delX,n соответственно&quot;&lt;/span&gt;&lt;span style=&quot;background: rgb(255, 255, 255);&quot;&gt;);&lt;/span&gt;&lt;/p&gt;&lt;p class=&quot;MsoNormal&quot;&gt;&lt;span style=&quot;color: light-dark(rgb(0, 0, 0), rgb(255, 255, 255)); background: rgb(255, 255, 255);&quot;&gt;double&lt;/span&gt;&lt;span style=&quot;color: light-dark(rgb(0, 0, 0), rgb(255, 255, 255)); background: rgb(255, 255, 255);&quot;&gt;&amp;nbsp;a = 0, b = 0, X0 = 0, XK = 0,&amp;nbsp;&lt;/span&gt;&lt;/p&gt;&lt;p class=&quot;MsoNormal&quot;&gt;&lt;span style=&quot;color: light-dark(rgb(0, 0, 0), rgb(255, 255, 255)); background: rgb(255, 255, 255);&quot;&gt;delX = 0, eps = 0.001, n = 0;&lt;/span&gt;&lt;/p&gt;&lt;p class=&quot;MsoNormal&quot;&gt;&lt;span style=&quot;background: rgb(255, 255, 255);&quot;&gt;while&lt;/span&gt;&lt;span style=&quot;background: rgb(255, 255, 255);&quot;&gt;&amp;nbsp;(&lt;/span&gt;&lt;span style=&quot;background: rgb(255, 255, 255);&quot;&gt;true&lt;/span&gt;&lt;span style=&quot;background: rgb(255, 255, 255);&quot;&gt;)&lt;/span&gt;&lt;span style=&quot;background: rgb(255, 255, 255);&quot;&gt;&lt;/span&gt;&lt;/p&gt;&lt;p class=&quot;MsoNormal&quot;&gt;&lt;span style=&quot;background: rgb(255, 255, 255);&quot;&gt;{&lt;/span&gt;&lt;span style=&quot;background: rgb(255, 255, 255);&quot;&gt;&lt;/span&gt;&lt;/p&gt;&lt;p class=&quot;MsoNormal&quot;&gt;&lt;span style=&quot;background: rgb(255, 255, 255);&quot;&gt;&amp;nbsp;&lt;/span&gt;&lt;span style=&quot;background: rgb(255, 255, 255);&quot;&gt;Console&lt;/span&gt;&lt;span style=&quot;background: rgb(255, 255, 255);&quot;&gt;.Write(&lt;/span&gt;&lt;span style=&quot;background: rgb(255, 255, 255);&quot;&gt;&quot;Введите значение a: &quot;&lt;/span&gt;&lt;span style=&quot;background: rgb(255, 255, 255);&quot;&gt;);&lt;/span&gt;&lt;span style=&quot;background: rgb(255, 255, 255);&quot;&gt;&lt;/span&gt;&lt;/p&gt;&lt;p class=&quot;MsoNormal&quot;&gt;&lt;span style=&quot;background: rgb(255, 255, 255);&quot;&gt;&amp;nbsp;&lt;/span&gt;&lt;span style=&quot;background: rgb(255, 255, 255);&quot;&gt;if&lt;/span&gt;&lt;span style=&quot;background: rgb(255, 255, 255);&quot;&gt;&amp;nbsp;(&lt;/span&gt;&lt;span style=&quot;background: rgb(255, 255, 255);&quot;&gt;double&lt;/span&gt;&lt;span style=&quot;background: rgb(255, 255, 255);&quot;&gt;.TryParse(&lt;/span&gt;&lt;span style=&quot;background: rgb(255, 255, 255);&quot;&gt;Console&lt;/span&gt;&lt;span style=&quot;background: rgb(255, 255, 255);&quot;&gt;.ReadLine(), &lt;/span&gt;&lt;span style=&quot;background: rgb(255, 255, 255);&quot;&gt;out&lt;/span&gt;&lt;span style=&quot;background: rgb(255, 255, 255);&quot;&gt;&amp;nbsp;a))&lt;/span&gt;&lt;span style=&quot;background: rgb(255, 255, 255);&quot;&gt;&lt;/span&gt;&lt;/p&gt;&lt;p class=&quot;MsoNormal&quot;&gt;&lt;span style=&quot;background: rgb(255, 255, 255);&quot;&gt;break&lt;/span&gt;&lt;span style=&quot;background: rgb(255, 255, 255);&quot;&gt;;&lt;/span&gt;&lt;span style=&quot;background: rgb(255, 255, 255);&quot;&gt;&lt;/span&gt;&lt;/p&gt;&lt;p class=&quot;MsoNormal&quot;&gt;&lt;span style=&quot;background: rgb(255, 255, 255);&quot;&gt;else&lt;/span&gt;&lt;span style=&quot;background: rgb(255, 255, 255);&quot;&gt;&amp;nbsp;{ &lt;/span&gt;&lt;span style=&quot;background: rgb(255, 255, 255);&quot;&gt;Console&lt;/span&gt;&lt;span style=&quot;background: rgb(255, 255, 255);&quot;&gt;.WriteLine(&lt;/span&gt;&lt;span style=&quot;background: rgb(255, 255, 255);&quot;&gt;&quot;Ошибка!&amp;nbsp;&lt;/span&gt;&lt;/p&gt;&lt;p class=&quot;MsoNormal&quot;&gt;&lt;span style=&quot;background: rgb(255, 255, 255);&quot;&gt;Введите числа! Попробуйте ещё раз&quot;&lt;/span&gt;&lt;span style=&quot;background: rgb(255, 255, 255);&quot;&gt;); }&lt;/span&gt;&lt;/p&gt;&lt;p class=&quot;MsoNormal&quot;&gt;&lt;span style=&quot;background-color: rgb(255, 255, 255);&quot;&gt;...&lt;/span&gt;&lt;/p&gt;" style="shape=parallelogram;perimeter=parallelogramPerimeter;whiteSpace=wrap;html=1;fixedSize=1;fontFamily=Times New Roman;fontSize=14;" vertex="1" parent="1">
          <mxGeometry x="280" y="420" width="320" height="380" as="geometry" />
        </mxCell>
        <mxCell id="bnACumZAh6A-GPEMyJIv-17" value="" style="endArrow=none;html=1;rounded=0;fontFamily=Times New Roman;fontSize=14;" edge="1" parent="1">
          <mxGeometry width="50" height="50" relative="1" as="geometry">
            <mxPoint x="760" y="400" as="sourcePoint" />
            <mxPoint x="760" y="380" as="targetPoint" />
          </mxGeometry>
        </mxCell>
        <mxCell id="bnACumZAh6A-GPEMyJIv-18" value="" style="endArrow=classic;html=1;rounded=0;fontFamily=Times New Roman;fontSize=14;" edge="1" parent="1">
          <mxGeometry width="50" height="50" relative="1" as="geometry">
            <mxPoint x="760" y="400" as="sourcePoint" />
            <mxPoint x="440" y="400" as="targetPoint" />
          </mxGeometry>
        </mxCell>
        <mxCell id="bnACumZAh6A-GPEMyJIv-19" value="" style="endArrow=none;html=1;rounded=0;fontFamily=Times New Roman;fontSize=14;" edge="1" parent="1">
          <mxGeometry width="50" height="50" relative="1" as="geometry">
            <mxPoint x="600" y="260" as="sourcePoint" />
            <mxPoint x="800" y="260" as="targetPoint" />
          </mxGeometry>
        </mxCell>
        <mxCell id="bnACumZAh6A-GPEMyJIv-20" value="" style="endArrow=classic;html=1;rounded=0;entryX=0.5;entryY=0;entryDx=0;entryDy=0;fontFamily=Times New Roman;fontSize=14;" edge="1" parent="1" target="bnACumZAh6A-GPEMyJIv-6">
          <mxGeometry width="50" height="50" relative="1" as="geometry">
            <mxPoint x="800" y="260" as="sourcePoint" />
            <mxPoint x="850" y="210" as="targetPoint" />
          </mxGeometry>
        </mxCell>
        <mxCell id="bnACumZAh6A-GPEMyJIv-28" value="" style="edgeStyle=orthogonalEdgeStyle;rounded=0;orthogonalLoop=1;jettySize=auto;html=1;" edge="1" parent="1" source="bnACumZAh6A-GPEMyJIv-21" target="bnACumZAh6A-GPEMyJIv-23">
          <mxGeometry relative="1" as="geometry" />
        </mxCell>
        <mxCell id="bnACumZAh6A-GPEMyJIv-21" value="X0 &amp;lt;= XK + eps?" style="rhombus;whiteSpace=wrap;html=1;" vertex="1" parent="1">
          <mxGeometry x="280" y="1000" width="320" height="80" as="geometry" />
        </mxCell>
        <mxCell id="bnACumZAh6A-GPEMyJIv-30" value="" style="edgeStyle=orthogonalEdgeStyle;rounded=0;orthogonalLoop=1;jettySize=auto;html=1;" edge="1" parent="1" source="bnACumZAh6A-GPEMyJIv-23" target="bnACumZAh6A-GPEMyJIv-29">
          <mxGeometry relative="1" as="geometry" />
        </mxCell>
        <mxCell id="bnACumZAh6A-GPEMyJIv-23" value="&lt;p style=&quot;&quot; class=&quot;MsoNormal&quot;&gt;&lt;font style=&quot;font-size: 14px;&quot; face=&quot;Times New Roman&quot;&gt;&lt;span style=&quot;background: rgb(255, 255, 255);&quot;&gt;&amp;nbsp;&lt;/span&gt;&lt;span style=&quot;background: rgb(255, 255, 255);&quot;&gt;double&lt;/span&gt;&lt;span style=&quot;background: rgb(255, 255, 255);&quot;&gt;&amp;nbsp;denominatorValue = &lt;/span&gt;&lt;span style=&quot;background: rgb(255, 255, 255);&quot;&gt;Math&lt;/span&gt;&lt;span style=&quot;background: rgb(255, 255, 255);&quot;&gt;.Tan(CubeRoot(&lt;/span&gt;&lt;span style=&quot;background: rgb(255, 255, 255);&quot;&gt;Math&lt;/span&gt;&lt;span style=&quot;background: rgb(255, 255, 255);&quot;&gt;.Pow(a, 2) + b - n));&lt;/span&gt;&lt;span style=&quot;background: rgb(255, 255, 255);&quot;&gt;&lt;/span&gt;&lt;/font&gt;&lt;/p&gt;&lt;p style=&quot;&quot; class=&quot;MsoNormal&quot;&gt;&lt;font style=&quot;font-size: 14px;&quot; face=&quot;Times New Roman&quot;&gt;&lt;span style=&quot;background: rgb(255, 255, 255);&quot;&gt;double&lt;/span&gt;&lt;span style=&quot;background: rgb(255, 255, 255);&quot;&gt;&amp;nbsp;numerator = 0.5 * &lt;/span&gt;&lt;span style=&quot;background: rgb(255, 255, 255);&quot;&gt;Math&lt;/span&gt;&lt;span style=&quot;background: rgb(255, 255, 255);&quot;&gt;.Cos(a * &lt;/span&gt;&lt;span style=&quot;background: rgb(255, 255, 255);&quot;&gt;Math&lt;/span&gt;&lt;span style=&quot;background: rgb(255, 255, 255);&quot;&gt;.Pow(X0, a)) + b;&lt;/span&gt;&lt;/font&gt;&lt;/p&gt;&lt;p style=&quot;&quot; class=&quot;MsoNormal&quot;&gt;&lt;font style=&quot;font-size: 14px;&quot; face=&quot;Times New Roman&quot;&gt;&lt;span style=&quot;background: rgb(255, 255, 255);&quot;&gt;double&lt;/span&gt;&lt;span style=&quot;background: rgb(255, 255, 255);&quot;&gt;&amp;nbsp;j = (numerator / denominatorValue) + &lt;/span&gt;&lt;span style=&quot;background: rgb(255, 255, 255);&quot;&gt;Math&lt;/span&gt;&lt;span style=&quot;background: rgb(255, 255, 255);&quot;&gt;.Pow(a, 3) * &lt;/span&gt;&lt;span style=&quot;background: rgb(255, 255, 255);&quot;&gt;Math&lt;/span&gt;&lt;span style=&quot;background: rgb(255, 255, 255);&quot;&gt;.Exp(X0);&lt;/span&gt;&lt;/font&gt;&lt;span style=&quot;font-family: &amp;quot;Cascadia Mono&amp;quot;; background: rgb(255, 255, 255);&quot;&gt;&lt;/span&gt;&lt;/p&gt;" style="rounded=0;whiteSpace=wrap;html=1;" vertex="1" parent="1">
          <mxGeometry x="280" y="1120" width="320" height="160" as="geometry" />
        </mxCell>
        <mxCell id="bnACumZAh6A-GPEMyJIv-24" value="1" style="ellipse;whiteSpace=wrap;html=1;aspect=fixed;" vertex="1" parent="1">
          <mxGeometry x="420" y="840" width="40" height="40" as="geometry" />
        </mxCell>
        <mxCell id="bnACumZAh6A-GPEMyJIv-27" value="" style="edgeStyle=orthogonalEdgeStyle;rounded=0;orthogonalLoop=1;jettySize=auto;html=1;" edge="1" parent="1" source="bnACumZAh6A-GPEMyJIv-26" target="bnACumZAh6A-GPEMyJIv-21">
          <mxGeometry relative="1" as="geometry" />
        </mxCell>
        <mxCell id="bnACumZAh6A-GPEMyJIv-26" value="1" style="ellipse;whiteSpace=wrap;html=1;aspect=fixed;" vertex="1" parent="1">
          <mxGeometry x="420" y="920" width="40" height="40" as="geometry" />
        </mxCell>
        <mxCell id="bnACumZAh6A-GPEMyJIv-29" value="&lt;p style=&quot;&quot; class=&quot;MsoNormal&quot;&gt;&lt;font style=&quot;font-size: 14px;&quot; face=&quot;Times New Roman&quot;&gt;&lt;span style=&quot;background: rgb(255, 255, 255);&quot;&gt;&amp;nbsp;&lt;/span&gt;&lt;span style=&quot;background: rgb(255, 255, 255);&quot;&gt;Console&lt;/span&gt;&lt;span style=&quot;background: rgb(255, 255, 255);&quot;&gt;.WriteLine(&lt;/span&gt;&lt;span style=&quot;background: rgb(255, 255, 255);&quot;&gt;$&quot;В точке x=&lt;/span&gt;&lt;span style=&quot;background: rgb(255, 255, 255);&quot;&gt;{X0:&lt;/span&gt;&lt;span style=&quot;background: rgb(255, 255, 255);&quot;&gt;F2&lt;/span&gt;&lt;span style=&quot;background: rgb(255, 255, 255);&quot;&gt;}&lt;/span&gt;&lt;span style=&quot;background: rgb(255, 255, 255);&quot;&gt;&amp;nbsp;арифметическое выражение = &lt;/span&gt;&lt;span style=&quot;background: rgb(255, 255, 255);&quot;&gt;{j:&lt;/span&gt;&lt;span style=&quot;background: rgb(255, 255, 255);&quot;&gt;F4&lt;/span&gt;&lt;span style=&quot;background: rgb(255, 255, 255);&quot;&gt;}&lt;/span&gt;&lt;span style=&quot;background: rgb(255, 255, 255);&quot;&gt;&quot;&lt;/span&gt;&lt;span style=&quot;background: rgb(255, 255, 255);&quot;&gt;);&lt;/span&gt;&lt;/font&gt;&lt;span style=&quot;font-family: &amp;quot;Cascadia Mono&amp;quot;; background: rgb(255, 255, 255);&quot;&gt;&lt;/span&gt;&lt;/p&gt;" style="shape=document;whiteSpace=wrap;html=1;boundedLbl=1;" vertex="1" parent="1">
          <mxGeometry x="280" y="1320" width="320" height="80" as="geometry" />
        </mxCell>
        <mxCell id="bnACumZAh6A-GPEMyJIv-33" value="&lt;font style=&quot;font-size: 14px;&quot; face=&quot;Times New Roman&quot;&gt;&amp;nbsp;X0 += delX&lt;/font&gt;" style="rounded=0;whiteSpace=wrap;html=1;" vertex="1" parent="1">
          <mxGeometry x="280" y="1440" width="320" height="40" as="geometry" />
        </mxCell>
        <mxCell id="bnACumZAh6A-GPEMyJIv-37" value="" style="endArrow=none;html=1;rounded=0;" edge="1" parent="1">
          <mxGeometry width="50" height="50" relative="1" as="geometry">
            <mxPoint x="200" y="1520" as="sourcePoint" />
            <mxPoint x="200" y="1040" as="targetPoint" />
          </mxGeometry>
        </mxCell>
        <mxCell id="bnACumZAh6A-GPEMyJIv-38" value="" style="endArrow=classic;html=1;rounded=0;entryX=0;entryY=0.5;entryDx=0;entryDy=0;" edge="1" parent="1" target="bnACumZAh6A-GPEMyJIv-21">
          <mxGeometry width="50" height="50" relative="1" as="geometry">
            <mxPoint x="200" y="1040" as="sourcePoint" />
            <mxPoint x="90" y="990" as="targetPoint" />
          </mxGeometry>
        </mxCell>
        <mxCell id="bnACumZAh6A-GPEMyJIv-39" value="" style="endArrow=none;html=1;rounded=0;" edge="1" parent="1">
          <mxGeometry width="50" height="50" relative="1" as="geometry">
            <mxPoint x="200" y="1520" as="sourcePoint" />
            <mxPoint x="440" y="1520" as="targetPoint" />
          </mxGeometry>
        </mxCell>
        <mxCell id="bnACumZAh6A-GPEMyJIv-40" value="" style="endArrow=classic;html=1;rounded=0;" edge="1" parent="1" source="bnACumZAh6A-GPEMyJIv-33">
          <mxGeometry width="50" height="50" relative="1" as="geometry">
            <mxPoint x="440" y="1520" as="sourcePoint" />
            <mxPoint x="440" y="1520" as="targetPoint" />
          </mxGeometry>
        </mxCell>
        <mxCell id="bnACumZAh6A-GPEMyJIv-41" value="" style="endArrow=classic;html=1;rounded=0;entryX=0.5;entryY=0;entryDx=0;entryDy=0;" edge="1" parent="1" target="bnACumZAh6A-GPEMyJIv-33">
          <mxGeometry width="50" height="50" relative="1" as="geometry">
            <mxPoint x="440" y="1390" as="sourcePoint" />
            <mxPoint x="490" y="1340" as="targetPoint" />
          </mxGeometry>
        </mxCell>
        <mxCell id="bnACumZAh6A-GPEMyJIv-42" value="" style="endArrow=none;html=1;rounded=0;" edge="1" parent="1">
          <mxGeometry width="50" height="50" relative="1" as="geometry">
            <mxPoint x="600" y="1040" as="sourcePoint" />
            <mxPoint x="680" y="1040" as="targetPoint" />
          </mxGeometry>
        </mxCell>
        <mxCell id="bnACumZAh6A-GPEMyJIv-43" value="" style="endArrow=none;html=1;rounded=0;" edge="1" parent="1">
          <mxGeometry width="50" height="50" relative="1" as="geometry">
            <mxPoint x="680" y="1560" as="sourcePoint" />
            <mxPoint x="680" y="1040" as="targetPoint" />
          </mxGeometry>
        </mxCell>
        <mxCell id="bnACumZAh6A-GPEMyJIv-44" value="" style="endArrow=none;html=1;rounded=0;" edge="1" parent="1">
          <mxGeometry width="50" height="50" relative="1" as="geometry">
            <mxPoint x="440" y="1560" as="sourcePoint" />
            <mxPoint x="680" y="1560" as="targetPoint" />
          </mxGeometry>
        </mxCell>
        <mxCell id="bnACumZAh6A-GPEMyJIv-45" value="" style="endArrow=classic;html=1;rounded=0;" edge="1" parent="1">
          <mxGeometry width="50" height="50" relative="1" as="geometry">
            <mxPoint x="440" y="1560" as="sourcePoint" />
            <mxPoint x="440" y="1600" as="targetPoint" />
            <Array as="points" />
          </mxGeometry>
        </mxCell>
        <mxCell id="bnACumZAh6A-GPEMyJIv-46" value="&lt;font style=&quot;font-size: 14px;&quot; face=&quot;Times New Roman&quot;&gt;Конец&lt;/font&gt;" style="ellipse;whiteSpace=wrap;html=1;" vertex="1" parent="1">
          <mxGeometry x="280" y="1600" width="320" height="40" as="geometry" />
        </mxCell>
        <mxCell id="bnACumZAh6A-GPEMyJIv-47" value="нет" style="text;html=1;align=center;verticalAlign=middle;whiteSpace=wrap;rounded=0;" vertex="1" parent="1">
          <mxGeometry x="580" y="1010" width="60" height="30" as="geometry" />
        </mxCell>
        <mxCell id="bnACumZAh6A-GPEMyJIv-48" value="да" style="text;html=1;align=center;verticalAlign=middle;whiteSpace=wrap;rounded=0;" vertex="1" parent="1">
          <mxGeometry x="380" y="1080" width="60" height="30" as="geometry" />
        </mxCell>
      </root>
    </mxGraphModel>
  </diagram>
</mxfile>
